<?xml version="1.0" encoding="UTF-8"?>
<svg xmlns="http://www.w3.org/2000/svg" xmlns:xlink="http://www.w3.org/1999/xlink" width="10px" height="10px" viewBox="0 0 10 10" version="1.1">
<g id="surface1">
<path style=" stroke:none;fill-rule:nonzero;fill:rgb(34.117647%,34.117647%,34.117647%);fill-opacity:1;" d="M 6.246094 5 L 9.738281 1.507812 C 9.90625 1.34375 9.996094 1.117188 10 0.882812 C 10 0.648438 9.90625 0.425781 9.738281 0.261719 C 9.574219 0.09375 9.351562 0 9.117188 0 C 8.882812 0 8.65625 0.09375 8.492188 0.257812 L 5 3.75 L 1.507812 0.257812 C 1.34375 0.09375 1.117188 0 0.882812 0 C 0.648438 0 0.425781 0.09375 0.257812 0.257812 C 0.09375 0.425781 0 0.648438 0 0.882812 C 0 1.117188 0.09375 1.34375 0.257812 1.507812 L 3.75 5 L 0.257812 8.492188 C 0.09375 8.65625 0 8.882812 0 9.117188 C 0 9.351562 0.09375 9.574219 0.257812 9.742188 C 0.425781 9.90625 0.648438 10 0.882812 10 C 1.117188 10 1.34375 9.90625 1.507812 9.742188 L 5 6.25 L 8.492188 9.742188 C 8.65625 9.90625 8.882812 10 9.117188 10 C 9.351562 10 9.574219 9.90625 9.742188 9.742188 C 9.90625 9.574219 10 9.351562 10 9.117188 C 10 8.882812 9.90625 8.65625 9.742188 8.492188 Z M 6.246094 5 "/>
</g>
</svg>
